<svg xmlns="http://www.w3.org/2000/svg" xmlns:xlink="http://www.w3.org/1999/xlink" version="1.1" id="Layer_1" x="0px" y="0px" width="100px" height="100px" viewBox="0 0 100 100" enable-background="new 0 0 100 100" xml:space="preserve">
<path d="M16.309,83.271c6.192,0,11.23-5.038,11.23-11.23V45.088V16.23c0-1.239,1.008-2.246,2.246-2.246  c1.239,0,2.246,1.008,2.246,2.246v28.857v9.824c0,6.192,5.038,11.23,11.23,11.23s11.23-5.038,11.23-11.23v-9.824V34.697  c0-1.239,1.008-2.246,2.246-2.246s2.246,1.008,2.246,2.246v10.391V83.77c0,6.192,5.038,11.23,11.23,11.23  c6.192,0,11.23-5.038,11.23-11.23V50.488c0-1.239,1.008-2.246,2.246-2.246c1.239,0,2.246,1.008,2.246,2.246v6.738  c0,2.477,2.015,4.492,4.492,4.492c2.477,0,4.492-2.015,4.492-4.492v-6.738c0-6.192-5.038-11.23-11.23-11.23  c-6.192,0-11.23,5.038-11.23,11.23V83.77c0,1.239-1.008,2.246-2.246,2.246s-2.246-1.008-2.246-2.246V45.088V34.697  c0-6.192-5.038-11.23-11.23-11.23s-11.23,5.038-11.23,11.23v10.391v9.824c0,1.239-1.008,2.246-2.246,2.246s-2.246-1.008-2.246-2.246  v-9.824V16.23c0-6.192-5.038-11.23-11.23-11.23s-11.23,5.038-11.23,11.23v28.857v26.953c0,1.239-1.008,2.246-2.246,2.246  s-2.246-1.008-2.246-2.246V45.859c0-2.477-2.015-4.492-4.492-4.492s-4.492,2.015-4.492,4.492v26.182  C5.078,78.233,10.116,83.271,16.309,83.271z"/>
</svg>