<svg xmlns="http://www.w3.org/2000/svg" xmlns:xlink="http://www.w3.org/1999/xlink" version="1.1" id="Layer_1" x="0px" y="0px" width="100px" height="100px" viewBox="0 0 100 100" enable-background="new 0 0 100 100" xml:space="preserve">
<path fill-rule="evenodd" clip-rule="evenodd" fill="#000000" d="M87.35,34.23c-2.678,0-4.849,2.171-4.849,4.85  c0,2.677,2.171,4.848,4.849,4.848s4.848-2.171,4.848-4.848C92.197,36.401,90.027,34.23,87.35,34.23L87.35,34.23z M12.651,45.261  c-2.681,0-4.853,2.172-4.853,4.853c0,2.681,2.172,4.853,4.853,4.853c2.68,0,4.854-2.172,4.854-4.853  C17.504,47.433,15.331,45.261,12.651,45.261L12.651,45.261z M12.651,64.678c3.771,0,6.896,2.76,7.47,6.367  c0.064-0.008,0.13-0.012,0.197-0.012c3.513,0.053,5.59-5.07,7.677-10.215c1.423-3.51,2.85-7.027,4.868-9.35H20.301  c-0.069,0-0.138-0.006-0.205-0.014c-0.632,3.537-3.726,6.223-7.446,6.223c-4.178,0-7.564-3.387-7.564-7.564  c0-4.178,3.387-7.564,7.564-7.564c3.72,0,6.813,2.687,7.446,6.225c0.066-0.011,0.135-0.016,0.205-0.016h13.035  c-1.744-2.147-3.083-5.319-4.454-8.564c-2.272-5.381-4.642-10.995-8.582-10.995c-0.04,0-0.079-0.002-0.118-0.005  c-0.638,3.581-3.768,6.3-7.532,6.3C8.426,35.494,5,32.069,5,27.843s3.426-7.65,7.651-7.65c3.765,0,6.894,2.72,7.532,6.301  c0.039-0.004,0.079-0.006,0.118-0.006c5.726,0,8.455,6.463,11.07,12.658c1.421,3.364,2.802,6.636,4.458,8.359  c0.537-2.942,1.965-5.573,3.995-7.604c2.613-2.614,6.224-4.23,10.212-4.23s7.599,1.616,10.212,4.23  c2.259,2.26,3.773,5.262,4.143,8.61c3.273-0.729,4.746-2.929,6.164-5.045c1.991-2.974,3.895-5.815,9.16-5.738  c0.065,0.001,0.13,0.007,0.192,0.016c0.631-3.538,3.723-6.225,7.442-6.225c4.175,0,7.559,3.384,7.559,7.56  c0,4.175-3.384,7.559-7.559,7.559c-3.72,0-6.812-2.687-7.442-6.226c-0.073,0.012-0.147,0.018-0.225,0.017  c-3.804-0.056-5.309,2.191-6.884,4.542c-1.281,1.914-2.602,3.883-4.876,5.144c2.274,1.26,3.594,3.229,4.876,5.143  c1.575,2.352,3.08,4.598,6.884,4.543c0.045,0,0.09,0.002,0.134,0.006c0.636-3.586,3.767-6.307,7.533-6.307  c4.226,0,7.65,3.426,7.65,7.65s-3.425,7.65-7.65,7.65c-3.767,0-6.897-2.721-7.533-6.305c-0.033,0.002-0.067,0.004-0.102,0.004  c-5.266,0.078-7.169-2.764-9.16-5.738c-1.418-2.117-2.892-4.314-6.165-5.045c-0.369,3.348-1.883,6.35-4.142,8.609  c-2.613,2.613-6.224,4.23-10.212,4.23s-7.599-1.617-10.212-4.23c-2.098-2.098-3.552-4.836-4.045-7.896  c-2.165,1.736-3.723,5.576-5.276,9.404c-2.434,6.004-4.857,11.979-10.218,11.9c-0.073-0.002-0.145-0.008-0.214-0.02  c-0.685,3.473-3.747,6.092-7.42,6.092c-4.178,0-7.564-3.387-7.564-7.564S8.473,64.678,12.651,64.678L12.651,64.678z M12.651,67.389  c-2.681,0-4.853,2.174-4.853,4.854c0,2.682,2.172,4.854,4.853,4.854c2.68,0,4.854-2.172,4.854-4.854  C17.504,69.563,15.331,67.389,12.651,67.389L12.651,67.389z M50.036,59.135c2.491,0,4.747-1.01,6.379-2.643  c1.633-1.633,2.642-3.887,2.642-6.378c0-2.491-1.009-4.747-2.642-6.379c-1.632-1.632-3.888-2.642-6.379-2.642  s-4.746,1.01-6.378,2.642c-1.633,1.632-2.643,3.888-2.643,6.379c0,2.492,1.01,4.746,2.643,6.378  C45.29,58.125,47.545,59.135,50.036,59.135z"/>
</svg>