<svg xmlns="http://www.w3.org/2000/svg" xmlns:xlink="http://www.w3.org/1999/xlink" version="1.1" id="Your_Icon" x="0px" y="0px" width="100px" height="100px" viewBox="0 0 100 100" enable-background="new 0 0 100 100" xml:space="preserve">
<path fill="#000000" d="M96.46,49.297c-1.21-10.242-5.787-19.719-13.191-27.123c-8.716-8.716-20.304-13.516-32.63-13.516  c-12.326,0-23.915,4.8-32.63,13.516C10.726,29.456,6.178,38.743,4.879,48.79c-2.685,0.666-4.682,3.096-4.682,5.984  c0,3.021,2.184,5.539,5.056,6.064c1.435,6.984,4.872,13.403,10.03,18.561c6.958,6.958,16.209,10.79,26.05,10.79  c9.84,0,19.092-3.832,26.05-10.79c5.163-5.163,8.603-11.59,10.035-18.583c2.809-0.574,4.928-3.065,4.928-6.041  c0-2.881-1.987-5.306-4.662-5.979c-0.538-3.301-1.517-6.489-2.911-9.493c0.503-0.049,1.013-0.075,1.53-0.075  c6.641,0,12.323,4.178,14.56,10.042c-2.011,1.017-3.394,3.102-3.394,5.504c0,3.4,2.766,6.166,6.165,6.166  c3.4,0,6.166-2.766,6.166-6.166C99.799,52.393,98.441,50.324,96.46,49.297z M59.686,44.962  c-4.015-10.865-14.477-18.631-26.719-18.631c-4.599,0-8.947,1.097-12.796,3.042c5.741-4.785,13.121-7.668,21.161-7.668  c11.644,0,21.903,6.044,27.804,15.16C65.169,38.455,61.848,41.325,59.686,44.962z M71.008,40.153  c0.992,2.002,1.788,4.118,2.362,6.323c-1.705-1.247-3.805-1.984-6.074-1.984c-1.062,0-2.087,0.162-3.052,0.461  C66.009,42.797,68.34,41.12,71.008,40.153z M58.725,57.199c-1.337,0-2.425-1.088-2.425-2.425c0-1.337,1.088-2.425,2.425-2.425  c1.337,0,2.425,1.088,2.425,2.425C61.15,56.111,60.062,57.199,58.725,57.199z M23.81,39.227c6.662,0,12.359,4.204,14.581,10.098  c-1.953,1.036-3.286,3.089-3.286,5.449c0,3.4,2.766,6.166,6.165,6.166c3.4,0,6.166-2.766,6.166-6.166  c0-3.109-2.313-5.686-5.309-6.104c-2.57-7.654-9.809-13.183-18.317-13.183c-3.017,0-5.873,0.695-8.42,1.934  c4.486-4.535,10.708-7.349,17.576-7.349c11.59,0,21.34,8.015,24.008,18.792c-2.549,0.757-4.415,3.119-4.415,5.911  c0,2.247,1.209,4.217,3.01,5.295c-2.513,5.235-7.866,8.858-14.05,8.858c-6.282,0-11.706-3.738-14.168-9.105  c1.589-1.116,2.63-2.962,2.63-5.047c0-3.399-2.766-6.165-6.166-6.165c-0.251,0-0.498,0.017-0.742,0.046  c-1.881-2.524-4.888-4.162-8.27-4.162c-1.062,0-2.087,0.162-3.052,0.461C14.612,41.46,18.955,39.227,23.81,39.227z M41.271,52.349  c1.337,0,2.425,1.088,2.425,2.425c0,1.337-1.088,2.425-2.425,2.425c-1.337,0-2.425-1.088-2.425-2.425  C38.846,53.436,39.934,52.349,41.271,52.349z M23.817,52.349c1.337,0,2.425,1.088,2.425,2.425c0,1.337-1.088,2.425-2.425,2.425  c-1.337,0-2.425-1.088-2.425-2.425C21.391,53.436,22.479,52.349,23.817,52.349z M3.937,54.774c0-1.337,1.088-2.425,2.425-2.425  c1.337,0,2.425,1.088,2.425,2.425c0,1.337-1.088,2.425-2.425,2.425C5.025,57.199,3.937,56.111,3.937,54.774z M41.332,86.448  c-15.848,0-29.127-11.197-32.35-26.094c2.093-0.987,3.546-3.116,3.546-5.58c0-1.906-0.869-3.612-2.232-4.743  c1.177-1.114,2.764-1.798,4.509-1.798c1.881,0,3.578,0.795,4.777,2.067c-1.188,1.124-1.931,2.714-1.931,4.474  c0,3.38,2.734,6.132,6.107,6.164c2.955,6.89,9.803,11.729,17.762,11.729c7.969,0,14.825-4.851,17.773-11.754  c3.134-0.288,5.598-2.93,5.598-6.139c0-1.873-0.841-3.553-2.164-4.685c1.183-1.148,2.794-1.856,4.569-1.856  c1.849,0,3.521,0.769,4.716,2.002c-1.227,1.128-1.998,2.745-1.998,4.539c0,2.507,1.504,4.667,3.657,5.63  C70.429,75.276,57.162,86.448,41.332,86.448z M76.179,57.199c-1.337,0-2.425-1.088-2.425-2.425c0-1.337,1.088-2.425,2.425-2.425  s2.425,1.088,2.425,2.425C78.605,56.111,77.517,57.199,76.179,57.199z M76.301,35.486c-1.16,0-2.297,0.103-3.402,0.3  c-1.529-2.528-3.375-4.889-5.518-7.032c-6.958-6.958-16.209-10.79-26.05-10.79c-6.761,0-13.244,1.809-18.896,5.198  c7.5-6.692,17.384-10.764,28.202-10.764c19.134,0,35.348,12.739,40.609,30.18C87.702,38.252,82.319,35.486,76.301,35.486z   M93.633,57.199c-1.337,0-2.425-1.088-2.425-2.425c0-1.337,1.088-2.425,2.425-2.425c1.337,0,2.425,1.088,2.425,2.425  C96.059,56.111,94.971,57.199,93.633,57.199z"/>
</svg>