<svg xmlns="http://www.w3.org/2000/svg" xmlns:xlink="http://www.w3.org/1999/xlink" version="1.1" id="Your_Icon" x="0px" y="0px" width="100px" height="100px" viewBox="0 0 100 100" enable-background="new 0 0 100 100" xml:space="preserve">
<path fill="#000000" d="M99.965,53.574c0.009-0.017,0.017-0.035,0.025-0.053c0.012-0.025,0.024-0.05,0.034-0.076  c0.008-0.021,0.015-0.041,0.023-0.062c0.008-0.023,0.017-0.047,0.024-0.071s0.013-0.049,0.019-0.073  c0.005-0.021,0.01-0.042,0.015-0.064c0.005-0.028,0.009-0.056,0.013-0.084c0.002-0.019,0.005-0.038,0.007-0.057  c0.003-0.031,0.004-0.062,0.005-0.093c0-0.013,0.002-0.026,0.002-0.04c0-0.004-0.001-0.008-0.001-0.012  c0-0.03-0.002-0.06-0.005-0.09c-0.001-0.019-0.002-0.038-0.004-0.057c-0.003-0.023-0.007-0.047-0.011-0.07  c-0.004-0.024-0.007-0.049-0.012-0.073c-0.003-0.014-0.008-0.029-0.011-0.043c-0.008-0.032-0.015-0.064-0.025-0.095  c-0.002-0.007-0.005-0.013-0.007-0.02c-0.013-0.038-0.026-0.075-0.041-0.111c-0.006-0.014-0.013-0.027-0.02-0.041  c-0.013-0.028-0.026-0.057-0.041-0.084c-0.021-0.038-0.043-0.075-0.068-0.111c-0.001-0.002-0.003-0.004-0.004-0.007  c-0.026-0.038-0.053-0.075-0.083-0.11l-0.001-0.001c-0.023-0.028-0.048-0.054-0.073-0.08c-0.008-0.008-0.015-0.017-0.023-0.024  c-0.019-0.019-0.04-0.036-0.06-0.054c-0.016-0.014-0.032-0.029-0.048-0.043c-0.016-0.013-0.033-0.024-0.049-0.037  c-0.023-0.017-0.046-0.035-0.07-0.05c-0.003-0.002-0.006-0.005-0.01-0.007c-0.012-0.008-0.024-0.014-0.037-0.021  c-0.026-0.016-0.052-0.031-0.079-0.045c-0.017-0.009-0.035-0.017-0.053-0.025c-0.025-0.012-0.051-0.024-0.077-0.034  c-0.02-0.008-0.041-0.015-0.061-0.023c-0.024-0.008-0.047-0.017-0.072-0.024c-0.024-0.007-0.047-0.013-0.071-0.018  c-0.022-0.005-0.044-0.011-0.066-0.015c-0.027-0.005-0.054-0.009-0.081-0.012c-0.02-0.003-0.039-0.006-0.059-0.007  c-0.03-0.003-0.06-0.004-0.09-0.005c-0.014,0-0.028-0.002-0.043-0.002H81.584l-3.441-8.907c-0.223-0.576-0.787-0.951-1.403-0.929  c-0.617,0.02-1.155,0.428-1.339,1.018l-2.762,8.817h-4.69L63.59,40.454c-0.188-0.475-0.612-0.816-1.116-0.898  c-0.504-0.083-1.014,0.106-1.344,0.496l-3.984,4.711l-9.05-16.9c-0.234-0.436-0.674-0.724-1.167-0.763  c-0.494-0.04-0.973,0.176-1.272,0.571l-9.232,12.177l-6.418-11.985c-0.234-0.436-0.674-0.724-1.167-0.763  c-0.494-0.04-0.973,0.176-1.272,0.571l-1.253,1.653l-3.368-15.625c-0.139-0.643-0.691-1.112-1.348-1.145  c-0.658-0.036-1.253,0.379-1.455,1.005l-5.689,17.63l-3.044-4.976c-0.295-0.482-0.841-0.749-1.402-0.686  c-0.561,0.063-1.035,0.446-1.214,0.981l-8.72,25.93c-0.001,0.004-0.002,0.007-0.003,0.011c-0.003,0.008-0.006,0.016-0.008,0.024  c-0.006,0.019-0.01,0.038-0.015,0.057c-0.001,0.004-0.002,0.007-0.003,0.011c-0.004,0.017-0.01,0.035-0.013,0.052  c-0.003,0.016-0.006,0.031-0.009,0.047c-0.002,0.009-0.003,0.018-0.004,0.028c-0.004,0.024-0.008,0.048-0.011,0.072  c0,0.003-0.001,0.007-0.001,0.01c-0.001,0.014-0.001,0.029-0.002,0.043C0.003,52.823,0,52.853,0,52.883c0,0.004,0,0.008,0,0.012  c0,0.002,0,0.004,0,0.007c0,0.012,0.001,0.023,0.002,0.035c0.001,0.029,0.001,0.058,0.003,0.086c0,0.005,0.001,0.01,0.002,0.016  c0.002,0.018,0.005,0.036,0.007,0.053c0.003,0.023,0.005,0.045,0.009,0.068c0.001,0.006,0.003,0.013,0.004,0.019  c0.004,0.022,0.01,0.043,0.015,0.064c0.004,0.017,0.007,0.034,0.012,0.051c0.002,0.008,0.005,0.016,0.007,0.023  c0.007,0.023,0.015,0.045,0.023,0.067c0.005,0.013,0.009,0.027,0.014,0.04c0.003,0.009,0.007,0.018,0.011,0.027  c0.009,0.022,0.019,0.042,0.029,0.064l0,0c0.006,0.013,0.011,0.025,0.017,0.038c0.005,0.009,0.01,0.018,0.014,0.028  c0.01,0.019,0.021,0.037,0.032,0.056c0.008,0.014,0.016,0.028,0.024,0.041c0.005,0.008,0.011,0.017,0.017,0.025  c0.01,0.016,0.022,0.031,0.033,0.046c0.012,0.016,0.023,0.033,0.035,0.048c0.005,0.007,0.011,0.013,0.016,0.02  c0.01,0.013,0.021,0.024,0.032,0.037c0.016,0.018,0.032,0.037,0.049,0.055c0.003,0.004,0.006,0.007,0.01,0.011  c0.002,0.002,0.003,0.003,0.005,0.005c0.01,0.01,0.02,0.019,0.03,0.028c0.02,0.019,0.04,0.038,0.061,0.056  c0.005,0.005,0.01,0.01,0.016,0.014c0.01,0.008,0.02,0.015,0.03,0.023c0.022,0.017,0.043,0.034,0.066,0.05  c0.019,0.013,0.038,0.025,0.057,0.037c0.02,0.012,0.04,0.025,0.06,0.036c0.007,0.004,0.013,0.008,0.02,0.012  c0.017,0.009,0.036,0.017,0.053,0.026c0.017,0.008,0.034,0.017,0.052,0.025c0.008,0.004,0.016,0.008,0.024,0.011  c0.02,0.008,0.041,0.015,0.062,0.023c0.001,0,0.002,0.001,0.002,0.001c0.012,0.004,0.023,0.01,0.035,0.014  c0.004,0.001,0.008,0.002,0.011,0.003c0.008,0.003,0.015,0.006,0.023,0.008c0.017,0.005,0.035,0.009,0.053,0.014  c0.005,0.001,0.009,0.002,0.014,0.004c0.018,0.005,0.036,0.01,0.054,0.014c0.021,0.005,0.043,0.008,0.064,0.011  c0.002,0,0.005,0.001,0.007,0.001c0.025,0.004,0.05,0.009,0.075,0.012c0.003,0,0.006,0.001,0.009,0.001  c0.014,0.001,0.028,0.001,0.042,0.002c0.031,0.002,0.061,0.005,0.092,0.005c0.004,0,0.007,0,0.011,0c0.002,0,0.005,0,0.007,0h27.284  l1.921,8.913c0.121,0.561,0.56,0.998,1.122,1.116c0.561,0.118,1.139-0.105,1.476-0.57l2.844-3.927l2.437,10.121  c0.146,0.608,0.665,1.054,1.288,1.107c0.622,0.053,1.21-0.297,1.458-0.871l3.704-8.564l5.59,19.563  c0.155,0.542,0.609,0.945,1.165,1.035c0.078,0.012,0.155,0.019,0.232,0.019c0.475,0,0.927-0.234,1.2-0.634l7.576-11.107l3.222,6.672  c0.228,0.473,0.694,0.786,1.219,0.819c0.03,0.002,0.06,0.003,0.09,0.003c0.491,0,0.952-0.249,1.22-0.665l8.948-13.852l6.612,13.695  c0.228,0.473,0.694,0.786,1.219,0.819c0.03,0.002,0.06,0.003,0.09,0.003c0.491,0,0.952-0.249,1.22-0.665L99.898,53.69  c0.008-0.012,0.013-0.024,0.021-0.036C99.935,53.628,99.95,53.602,99.965,53.574z M76.931,47.468l0.22,0.57  c-0.102-0.038-0.212-0.06-0.327-0.06c-0.018,0-0.036,0.002-0.054,0.003L76.931,47.468z M75.777,51.15  c0.374-0.124,0.645-0.476,0.645-0.891c0-0.212-0.071-0.406-0.189-0.563l0.012-0.04c0.16,0.125,0.36,0.201,0.579,0.201  c0.363,0,0.677-0.206,0.833-0.508l0.038,0.098c-0.28,0.163-0.469,0.465-0.469,0.812c0,0.519,0.42,0.939,0.939,0.939  c0.068,0,0.134-0.008,0.198-0.021l0.105,0.272H77.75c-0.073-0.446-0.459-0.787-0.925-0.787c-0.467,0-0.853,0.341-0.925,0.787h-0.215  L75.777,51.15z M64.823,51.448H49.859l-0.019-0.049h5.496h0.056h9.411L64.823,51.448z M39.056,44.762l-0.077-0.144h0.198  L39.056,44.762z M64.431,50.46h-9.039h-0.056h-5.868l-0.159-0.402h6.028h0.056h8.88L64.431,50.46z M61.073,44.619h1.042l0.16,0.402  h-1.542L61.073,44.619z M59.939,45.96h2.708l0.16,0.402h-3.208L59.939,45.96z M58.805,47.301h4.374l0.159,0.402h-4.874  L58.805,47.301z M56.722,48.779c0.272,0.029,0.543-0.021,0.783-0.136h6.206l0.189,0.476h-8.507h-0.056h-6.4l-0.189-0.476h6.589  h0.056h0.853C56.393,48.714,56.554,48.761,56.722,48.779z M55.424,47.704h-0.032h-0.056h-6.961l-0.16-0.402h6.993L55.424,47.704z   M54.706,46.362h-6.863l-0.16-0.402h6.807L54.706,46.362z M53.988,45.021h-6.643h-0.033l-0.159-0.402h0.137h0.056h6.428  L53.988,45.021z M53.269,43.68h-5.925h-0.056H46.78l-0.16-0.402h0.668h0.056h5.71L53.269,43.68z M52.551,42.339h-5.207h-0.056h-1.04  l-0.159-0.402h1.2h0.056h4.992L52.551,42.339z M51.833,40.997h-4.489h-0.056h-1.572l-0.159-0.402h1.732h0.056h4.273L51.833,40.997z   M46.604,31.232l0.202,0.376h-0.487L46.604,31.232z M45.606,32.547h1.682h0.02l0.215,0.402h-0.179h-0.056h-1.987L45.606,32.547z   M44.589,33.889h2.699h0.056h0.682l0.215,0.402h-0.897h-0.056h-3.004L44.589,33.889z M43.572,35.23h3.716h0.056h1.4l0.215,0.402  h-1.616h-0.056h-4.021L43.572,35.23z M42.555,36.571h4.733h0.056h2.118l0.215,0.402h-2.334h-0.056H42.25L42.555,36.571z   M41.539,37.912h5.75h0.056h2.837l0.215,0.402h-3.052h-0.056h-6.055L41.539,37.912z M40.522,39.254h6.767h0.056H50.9l0.215,0.402  h-3.77h-0.056h-2.562c-0.108-0.047-0.223-0.081-0.342-0.101c-0.279-0.046-0.56-0.008-0.812,0.101h-3.356L40.522,39.254z   M39.505,40.595h3.076l-0.34,0.402h-2.999H39.2L39.505,40.595z M38.488,41.936h0.753h2.205l-0.34,0.402h-1.865h-1.058L38.488,41.936  z M39.241,43.278h1.071l-0.34,0.402h-0.731h-0.764l-0.215-0.402H39.241z M28.514,31.232l8.99,16.788  c0.227,0.424,0.65,0.709,1.128,0.759c0.479,0.05,0.951-0.139,1.262-0.507l3.799-4.492l3.04,7.669H5.008L8.929,47.6l3.307,2.637  c0.306,0.244,0.698,0.354,1.086,0.306c0.388-0.049,0.741-0.252,0.977-0.564L28.514,31.232z M21.071,20.148  c0.095-0.075,0.174-0.167,0.235-0.272l0.019,0.087c-0.117,0.075-0.215,0.176-0.288,0.293L21.071,20.148z M10.411,30.816  c0.092-0.089,0.166-0.195,0.216-0.315l0.079,0.129c-0.12,0.056-0.226,0.136-0.312,0.235L10.411,30.816z M4.98,46.969  c0.216-0.172,0.354-0.437,0.354-0.734c0-0.08-0.011-0.157-0.03-0.231l0.081-0.24c0.109,0.044,0.227,0.069,0.352,0.069  c0.519,0,0.939-0.42,0.939-0.939c0-0.433-0.294-0.797-0.693-0.905l0.159-0.472c0,0.012-0.002,0.024-0.002,0.037  c0,0.519,0.42,0.939,0.939,0.939s0.939-0.42,0.939-0.939c0-0.518-0.42-0.939-0.939-0.939c-0.318,0-0.598,0.158-0.768,0.4  l0.027-0.081c0.207-0.172,0.339-0.432,0.339-0.722c0-0.073-0.009-0.143-0.025-0.212l0.086-0.256  c0.106,0.041,0.221,0.065,0.341,0.065c0.519,0,0.939-0.42,0.939-0.939c0-0.43-0.289-0.791-0.683-0.903l0.146-0.436  c0.002,0.517,0.421,0.936,0.939,0.936s0.939-0.42,0.939-0.939c0-0.518-0.42-0.939-0.939-0.939c-0.305,0-0.576,0.146-0.747,0.372  l0.023-0.068c0.197-0.172,0.322-0.424,0.322-0.707c0-0.066-0.007-0.13-0.02-0.192l0.091-0.271c0.103,0.039,0.214,0.061,0.331,0.061  c0.518,0,0.939-0.42,0.939-0.939c0-0.426-0.284-0.785-0.672-0.9l0.137-0.408c0.017,0.503,0.43,0.906,0.937,0.906  c0.519,0,0.939-0.42,0.939-0.939c0-0.518-0.42-0.939-0.939-0.939c-0.293,0-0.554,0.134-0.726,0.344l0.018-0.055  c0.187-0.172,0.305-0.417,0.305-0.691c0-0.058-0.006-0.114-0.016-0.169l0.098-0.291c0.1,0.036,0.208,0.057,0.321,0.057  c0.519,0,0.939-0.42,0.939-0.939c0-0.422-0.278-0.779-0.661-0.897l0.128-0.381c0.032,0.489,0.438,0.876,0.936,0.876  c0.218,0,0.418-0.075,0.577-0.2l0.019,0.032c-0.121,0.158-0.194,0.355-0.194,0.57c0,0.519,0.42,0.939,0.939,0.939  c0.058,0,0.114-0.006,0.169-0.016l0.235,0.385c0,0.011-0.002,0.022-0.002,0.034c0,0.377,0.222,0.701,0.542,0.85l0.238,0.389  c0.167,0.273,0.414,0.477,0.699,0.591c0.165,0.27,0.461,0.45,0.801,0.45c0.519,0,0.939-0.42,0.939-0.939  c0-0.013-0.001-0.025-0.002-0.037c0.079-0.114,0.142-0.241,0.185-0.377l0.004-0.014c0.069,0.016,0.14,0.026,0.214,0.026  c0.519,0,0.939-0.42,0.939-0.939c0-0.391-0.239-0.726-0.579-0.867l0.075-0.232c0.107,0.401,0.471,0.697,0.906,0.697  c0.518,0,0.939-0.42,0.939-0.939c0-0.518-0.42-0.939-0.939-0.939c-0.225,0-0.432,0.079-0.593,0.211l0.339-1.052  c0.081,0.023,0.166,0.036,0.254,0.036c0.518,0,0.939-0.42,0.939-0.939c0-0.405-0.257-0.749-0.617-0.881l0.096-0.296  c0.078,0.44,0.461,0.775,0.924,0.775c0.518,0,0.939-0.42,0.939-0.939c0-0.518-0.42-0.939-0.939-0.939  c-0.254,0-0.485,0.101-0.654,0.266l0.015-0.047c0.146-0.166,0.236-0.383,0.236-0.621c0-0.032-0.002-0.064-0.005-0.095l0.114-0.354  c0.092,0.03,0.191,0.047,0.293,0.047c0.518,0,0.939-0.42,0.939-0.939c0-0.42-0.275-0.775-0.655-0.895l0.122-0.379  c0.035,0.487,0.44,0.871,0.935,0.871c0.519,0,0.939-0.42,0.939-0.939c0-0.518-0.42-0.939-0.939-0.939  c-0.289,0-0.547,0.131-0.719,0.335l0.388-1.201c0.103,0.039,0.214,0.061,0.331,0.061c0.519,0,0.939-0.42,0.939-0.939  c0-0.434-0.295-0.798-0.695-0.906l0.161-0.5c-0.001,0.021-0.003,0.042-0.003,0.064c0,0.472,0.348,0.861,0.801,0.928l0.176,0.818  c-0.013-0.001-0.025-0.002-0.038-0.002c-0.519,0-0.939,0.42-0.939,0.939s0.42,0.939,0.939,0.939c0.151,0,0.294-0.037,0.421-0.1  l0.039,0.182c-0.037,0.1-0.058,0.208-0.058,0.321c0,0.256,0.102,0.487,0.268,0.657l0.008,0.037  c-0.171-0.179-0.412-0.291-0.679-0.291c-0.519,0-0.939,0.42-0.939,0.939s0.42,0.939,0.939,0.939c0.41,0,0.757-0.263,0.885-0.628  l0.041,0.19c-0.31,0.153-0.524,0.472-0.524,0.841c0,0.508,0.403,0.92,0.907,0.937l0.176,0.819c-0.047-0.007-0.095-0.012-0.145-0.012  c-0.519,0-0.939,0.42-0.939,0.939s0.42,0.939,0.939,0.939c0.19,0,0.366-0.057,0.514-0.153l0.018,0.082  c-0.081,0.139-0.129,0.3-0.129,0.473c0,0.316,0.157,0.595,0.396,0.765L24,32.376l0,0c-0.159-0.293-0.469-0.493-0.826-0.493  c-0.519,0-0.939,0.42-0.939,0.939c0,0.448,0.313,0.821,0.732,0.915l-0.209,0.276c-0.072-0.447-0.458-0.789-0.926-0.789  c-0.519,0-0.939,0.42-0.939,0.939s0.42,0.939,0.939,0.939c0.036,0,0.07-0.002,0.105-0.006l-0.576,0.759  c0.044-0.108,0.068-0.227,0.068-0.351c0-0.518-0.42-0.939-0.939-0.939s-0.939,0.42-0.939,0.939s0.42,0.939,0.939,0.939  c0.216,0,0.415-0.074,0.574-0.197l-0.776,1.024c-0.421,0.093-0.736,0.468-0.736,0.916c0,0.017,0.002,0.034,0.003,0.051L19.281,38.6  c-0.043-0.006-0.086-0.01-0.131-0.01c-0.519,0-0.939,0.42-0.939,0.939c0,0.134,0.029,0.262,0.08,0.377l-0.086,0.113  c-0.12-0.056-0.254-0.088-0.396-0.088c-0.519,0-0.939,0.42-0.939,0.939c0,0.234,0.086,0.447,0.227,0.611l-0.016,0.021  c-0.165-0.143-0.379-0.229-0.614-0.229c-0.519,0-0.939,0.42-0.939,0.939c0,0.327,0.167,0.615,0.421,0.783l-0.036,0.048  c-0.167-0.257-0.457-0.428-0.787-0.428c-0.519,0-0.939,0.42-0.939,0.939c0,0.421,0.277,0.777,0.659,0.896l-0.155,0.204  c-0.106-0.402-0.471-0.698-0.907-0.698c-0.519,0-0.939,0.42-0.939,0.939s0.42,0.939,0.939,0.939c0.004,0,0.008-0.001,0.013-0.001  l-0.43,0.567c0.01-0.054,0.015-0.109,0.015-0.165c0-0.518-0.42-0.939-0.939-0.939c-0.426,0-0.784,0.283-0.9,0.671l-0.208-0.165  c0.405-0.104,0.705-0.471,0.705-0.908c0-0.518-0.42-0.939-0.939-0.939c-0.51,0-0.924,0.407-0.938,0.913l-0.429-0.342  c-0.017-0.014-0.035-0.026-0.053-0.038c0.026,0.002,0.052,0.004,0.078,0.004c0.519,0,0.939-0.42,0.939-0.939  c0-0.518-0.42-0.939-0.939-0.939s-0.939,0.42-0.939,0.939c0,0.272,0.116,0.515,0.3,0.687c-0.012-0.002-0.024-0.004-0.036-0.006  c-0.17-0.172-0.406-0.278-0.667-0.278c-0.519,0-0.939,0.42-0.939,0.939c0,0.018,0.002,0.036,0.003,0.054L7.123,45.3  c-0.016-0.001-0.031-0.002-0.047-0.002c-0.519,0-0.939,0.421-0.939,0.939c0,0.01,0.001,0.02,0.002,0.03L5.76,46.639  c-0.008,0-0.015-0.001-0.023-0.001c-0.333,0-0.625,0.174-0.792,0.436L4.98,46.969z M4.798,47.583l-0.036,0.036l0.04-0.119  c-0.002,0.025-0.004,0.051-0.004,0.077C4.798,47.579,4.798,47.581,4.798,47.583z M32.812,59.47l-0.053-0.245  c0.122-0.026,0.236-0.076,0.336-0.145L32.812,59.47z M36.082,55.201c-0.155-0.306-0.471-0.515-0.837-0.515  c-0.519,0-0.939,0.42-0.939,0.939c0,0.416,0.271,0.768,0.646,0.892l-0.144,0.199c-0.11-0.396-0.472-0.688-0.904-0.688  c-0.519,0-0.939,0.42-0.939,0.939s0.42,0.939,0.939,0.939c0.015,0,0.029-0.002,0.044-0.002l-0.485,0.67  c0.025-0.084,0.039-0.173,0.039-0.265c0-0.518-0.42-0.939-0.939-0.939c-0.068,0-0.134,0.008-0.198,0.021l-0.197-0.914  c0.12,0.056,0.254,0.088,0.395,0.088c0.519,0,0.939-0.42,0.939-0.939c0-0.518-0.42-0.939-0.939-0.939  c-0.284,0-0.539,0.127-0.711,0.327l-0.006-0.029c0.176-0.157,0.292-0.379,0.311-0.629h0.812c0.037,0.485,0.441,0.868,0.935,0.868  s0.899-0.382,0.935-0.868h0.811c0.027,0.352,0.248,0.65,0.556,0.787C36.164,55.159,36.122,55.179,36.082,55.201z M40.343,65.097  l-0.14-0.579c0.107,0.052,0.226,0.083,0.351,0.091L40.343,65.097z M52.52,77.466l-0.251-0.88c0.125,0.061,0.265,0.097,0.413,0.097  c0.164,0,0.318-0.042,0.452-0.116L52.52,77.466z M58.715,68.383c-0.075,0.077-0.137,0.167-0.182,0.267l-0.541,0.793  c-0.493,0.028-0.885,0.436-0.885,0.936c0,0.102,0.017,0.2,0.047,0.292l-0.117,0.172c-0.103-0.039-0.215-0.062-0.332-0.062  c-0.519,0-0.939,0.42-0.939,0.939c0,0.243,0.093,0.463,0.244,0.629l-0.013,0.02c-0.167-0.153-0.389-0.247-0.633-0.247  c-0.519,0-0.939,0.42-0.939,0.939c0,0.37,0.214,0.689,0.525,0.842l-0.074,0.109c-0.148-0.323-0.474-0.549-0.853-0.549  c-0.519,0-0.939,0.42-0.939,0.939c0,0.501,0.393,0.909,0.887,0.936l-0.359,0.527c0.005-0.04,0.009-0.08,0.009-0.122  c0-0.518-0.42-0.939-0.939-0.939c-0.336,0-0.63,0.177-0.796,0.442l-0.019-0.067c0.249-0.169,0.412-0.454,0.412-0.777  c0-0.506-0.401-0.918-0.902-0.937l-0.237-0.828c0.065,0.014,0.131,0.022,0.2,0.022c0.519,0,0.939-0.42,0.939-0.939  c0-0.518-0.42-0.939-0.939-0.939c-0.255,0-0.485,0.102-0.654,0.266l-0.007-0.023c0.16-0.168,0.258-0.395,0.258-0.646  c0-0.437-0.299-0.803-0.702-0.908l-0.239-0.836c0.001,0,0.002,0,0.002,0c0.519,0,0.939-0.42,0.939-0.939  c0-0.518-0.42-0.939-0.939-0.939c-0.183,0-0.353,0.053-0.498,0.144l-0.025-0.087c0.076-0.136,0.12-0.292,0.12-0.459  c0-0.354-0.196-0.663-0.486-0.823l-0.268-0.939c0.43-0.086,0.755-0.465,0.755-0.921c0-0.518-0.42-0.939-0.939-0.939  c-0.116,0-0.227,0.022-0.33,0.061l-0.087-0.304c0.009-0.052,0.014-0.104,0.014-0.159c0-0.239-0.09-0.457-0.238-0.623l-0.013-0.044  c0.169,0.164,0.399,0.265,0.653,0.265c0.519,0,0.939-0.42,0.939-0.939c0-0.518-0.42-0.939-0.939-0.939  c-0.44,0-0.809,0.303-0.91,0.712l-0.071-0.247c0.34-0.141,0.578-0.476,0.578-0.867c0-0.518-0.42-0.939-0.939-0.939  c-0.052,0-0.102,0.005-0.152,0.013l-0.261-0.915c0.125,0.061,0.265,0.097,0.413,0.097c0.518,0,0.939-0.42,0.939-0.939  c0-0.518-0.42-0.939-0.939-0.939c-0.373,0-0.693,0.217-0.845,0.532c-0.023-0.034-0.047-0.066-0.072-0.097  c0.305-0.155,0.515-0.471,0.515-0.837c0-0.518-0.42-0.939-0.939-0.939s-0.939,0.42-0.939,0.939c0,0.108,0.019,0.21,0.052,0.307  c-0.131,0.016-0.259,0.049-0.379,0.099c-0.025-0.002-0.05-0.004-0.076-0.004c-0.519,0-0.939,0.42-0.939,0.939  c0,0.098,0.015,0.193,0.043,0.282l-0.083,0.193c-0.112-0.047-0.234-0.073-0.362-0.073c-0.519,0-0.939,0.42-0.939,0.939  c0,0.382,0.228,0.71,0.556,0.857l-0.074,0.171c-0.129-0.364-0.476-0.626-0.884-0.626c-0.519,0-0.939,0.42-0.939,0.939  s0.42,0.939,0.939,0.939c0.134,0,0.262-0.029,0.377-0.079l-0.383,0.884c-0.516,0.003-0.933,0.422-0.933,0.939  c0,0.247,0.096,0.47,0.251,0.638l-0.009,0.022c-0.168-0.159-0.395-0.257-0.644-0.257c-0.305,0-0.575,0.146-0.747,0.371l-0.01-0.04  c0.215-0.172,0.354-0.436,0.354-0.734c0-0.455-0.323-0.834-0.752-0.92l-0.198-0.824c0.004,0,0.008,0.001,0.012,0.001  c0.519,0,0.939-0.42,0.939-0.939c0-0.518-0.42-0.939-0.939-0.939c-0.158,0-0.307,0.04-0.438,0.109l-0.036-0.151  c0.046-0.111,0.072-0.232,0.072-0.36c0-0.286-0.128-0.542-0.33-0.714l-0.015-0.06c0.171,0.226,0.442,0.372,0.747,0.372  c0.519,0,0.939-0.42,0.939-0.939c0-0.518-0.42-0.939-0.939-0.939c-0.462,0-0.845,0.334-0.924,0.774l-0.073-0.304  c0.348-0.138,0.594-0.476,0.594-0.873c0-0.518-0.42-0.939-0.939-0.939c-0.315,0-0.593,0.156-0.763,0.394  c-0.019-0.005-0.039-0.01-0.058-0.014c0.234-0.156,0.392-0.414,0.415-0.71h0.813c0.037,0.485,0.441,0.868,0.935,0.868  s0.899-0.382,0.935-0.868h0.812c0.037,0.485,0.441,0.868,0.935,0.868s0.899-0.382,0.935-0.868h0.812  c0.037,0.485,0.441,0.868,0.935,0.868s0.899-0.382,0.935-0.868h0.812c0.037,0.485,0.441,0.868,0.935,0.868  c0.312,0,0.588-0.153,0.759-0.388l0.017,0.042c-0.226,0.171-0.373,0.442-0.373,0.748c0,0.519,0.42,0.939,0.939,0.939  c0.034,0,0.068-0.002,0.101-0.006l0.372,0.939c-0.139-0.082-0.301-0.129-0.473-0.129c-0.519,0-0.939,0.42-0.939,0.939  s0.42,0.939,0.939,0.939c0.426,0,0.785-0.284,0.9-0.673l0.082,0.208c-0.34,0.141-0.58,0.476-0.58,0.868  c0,0.519,0.42,0.939,0.939,0.939c0.117,0,0.229-0.023,0.333-0.062l0.097,0.244c-0.017,0.071-0.027,0.144-0.027,0.22  c0,0.443,0.308,0.814,0.721,0.912c0.147,0.106,0.313,0.186,0.493,0.232c0.047,0.012,0.095,0.021,0.143,0.028  c-0.01,0.055-0.016,0.111-0.016,0.169c0,0.519,0.42,0.939,0.939,0.939c0.518,0,0.939-0.42,0.939-0.939  c0-0.313-0.154-0.59-0.39-0.761l0.034-0.028c0.171,0.234,0.446,0.387,0.758,0.387c0.519,0,0.939-0.42,0.939-0.939  c0-0.251-0.099-0.478-0.259-0.646l0.017-0.014c0.168,0.159,0.395,0.258,0.645,0.258c0.185,0,0.357-0.054,0.502-0.146l0.033,0.069  c-0.084,0.14-0.133,0.304-0.133,0.48c0,0.476,0.354,0.868,0.813,0.93l0.415,0.86c-0.091-0.03-0.188-0.046-0.29-0.046  c-0.519,0-0.939,0.42-0.939,0.939s0.42,0.939,0.939,0.939c0.403,0,0.746-0.254,0.879-0.611l0.076,0.158  c-0.326,0.147-0.553,0.475-0.553,0.855c0,0.519,0.42,0.939,0.939,0.939c0.155,0,0.301-0.038,0.43-0.105l0.057,0.119  c-0.054,0.118-0.085,0.25-0.085,0.388c0,0.44,0.303,0.808,0.712,0.91l0.132,0.272L58.715,68.383z M65.464,73.635L57.307,56.74  c-0.195-0.403-0.564-0.694-1.001-0.788c-0.437-0.094-0.894,0.017-1.238,0.304l-2.482,2.069l-1.574-3.97H77.92L65.464,73.635z   M83.794,73.262h-0.422l-0.194-0.402h0.876L83.794,73.262z M84.661,71.921h-1.936l-0.194-0.402h2.39L84.661,71.921z M85.527,70.579  h-3.45l-0.194-0.402h3.904L85.527,70.579z M86.394,69.238H81.43l-0.194-0.402h5.418L86.394,69.238z M87.26,67.897h-6.478  l-0.194-0.402h6.932L87.26,67.897z M88.127,66.556h-0.544h-0.056h-7.392l-0.194-0.402h7.586h0.056h0.804L88.127,66.556z   M88.993,65.214h-1.411h-0.056h-7.992h-0.048l-0.194-0.402h0.186h0.056h7.992h0.056h1.671L88.993,65.214z M89.86,63.873h-2.277  h-0.056h-7.992h-0.056H78.84l-0.194-0.402h0.834h0.056h7.992h0.056h2.537L89.86,63.873z M90.726,62.532h-3.144h-0.056h-7.992h-0.056  h-1.287l-0.194-0.402h1.481h4.052h3.996h0.056h3.404L90.726,62.532z M91.593,61.19h-4.01h-0.056h-3.996h-4.052h-1.935l-0.194-0.402  h2.129h3.735h4.312h0.056h4.27L91.593,61.19z M92.459,59.849h-4.877h-0.056h-4.312h-3.735h-1.65l0.26-0.402h1.39h0.056h7.992h0.056  h5.137L92.459,59.849z M93.326,58.508h-5.743h-0.056h-7.992h-0.056h-0.783l0.26-0.402h0.523h0.056h7.992h0.056h6.003L93.326,58.508z   M94.192,57.167h-6.61h-0.056h-7.964l0.26-0.402h7.704h0.056h6.87L94.192,57.167z M95.059,55.825h-7.476h-0.056h-7.098l0.26-0.402  h6.838h0.056h7.736L95.059,55.825z M95.63,54.484h-8.048h-0.056h-6.231l0.084-0.13h14.63l-0.084,0.13H95.63z"/>
<circle fill="#000000" cx="55.364" cy="70.378" r="0.939"/>
<circle fill="#000000" cx="52.682" cy="73.061" r="0.939"/>
<circle fill="#000000" cx="58.047" cy="67.696" r="0.939"/>
<circle fill="#000000" cx="56.705" cy="69.037" r="0.939"/>
<circle fill="#000000" cx="54.023" cy="71.72" r="0.939"/>
<circle fill="#000000" cx="49.999" cy="65.013" r="0.939"/>
<circle fill="#000000" cx="49.999" cy="62.331" r="0.939"/>
<circle fill="#000000" cx="51.34" cy="69.037" r="0.939"/>
<circle fill="#000000" cx="51.34" cy="66.355" r="0.939"/>
<circle fill="#000000" cx="52.681" cy="70.378" r="0.939"/>
<circle fill="#000000" cx="40.61" cy="60.989" r="0.939"/>
<circle fill="#000000" cx="40.61" cy="55.624" r="0.939"/>
<circle fill="#000000" cx="41.951" cy="56.966" r="0.939"/>
<circle fill="#000000" cx="43.293" cy="55.624" r="0.939"/>
<circle fill="#000000" cx="40.61" cy="58.307" r="0.939"/>
<circle fill="#000000" cx="54.023" cy="63.672" r="0.939"/>
<circle fill="#000000" cx="55.364" cy="65.013" r="0.939"/>
<circle fill="#000000" cx="54.023" cy="66.355" r="0.939"/>
<circle fill="#000000" cx="55.364" cy="62.331" r="0.939"/>
<circle fill="#000000" cx="52.681" cy="65.013" r="0.939"/>
<circle fill="#000000" cx="56.705" cy="66.355" r="0.939"/>
<circle fill="#000000" cx="55.364" cy="67.696" r="0.939"/>
<circle fill="#000000" cx="54.023" cy="69.037" r="0.939"/>
<circle fill="#000000" cx="52.681" cy="67.696" r="0.939"/>
<circle fill="#000000" cx="51.34" cy="63.672" r="0.939"/>
<circle fill="#000000" cx="20.491" cy="30.14" r="0.939"/>
<circle fill="#000000" cx="8.419" cy="42.212" r="0.939"/>
<circle fill="#000000" cx="9.761" cy="40.87" r="0.939"/>
<circle fill="#000000" cx="12.443" cy="35.505" r="0.939"/>
<circle fill="#000000" cx="13.784" cy="36.847" r="0.939"/>
<circle fill="#000000" cx="15.126" cy="38.188" r="0.939"/>
<circle fill="#000000" cx="11.102" cy="36.846" r="0.939"/>
<circle fill="#000000" cx="9.761" cy="38.188" r="0.939"/>
<circle fill="#000000" cx="11.102" cy="34.164" r="0.939"/>
<circle fill="#000000" cx="15.126" cy="40.87" r="0.939"/>
<circle fill="#000000" cx="16.467" cy="36.846" r="0.939"/>
<circle fill="#000000" cx="11.102" cy="42.212" r="0.939"/>
<circle fill="#000000" cx="11.102" cy="39.529" r="0.939"/>
<circle fill="#000000" cx="12.443" cy="38.188" r="0.939"/>
<circle fill="#000000" cx="12.443" cy="43.553" r="0.939"/>
<circle fill="#000000" cx="16.467" cy="39.529" r="0.939"/>
<circle fill="#000000" cx="12.443" cy="40.87" r="0.939"/>
<circle fill="#000000" cx="13.784" cy="39.529" r="0.939"/>
<circle fill="#000000" cx="13.785" cy="42.212" r="0.939"/>
<circle fill="#000000" cx="21.832" cy="31.481" r="0.939"/>
<circle fill="#000000" cx="21.832" cy="28.799" r="0.939"/>
<circle fill="#000000" cx="17.808" cy="35.505" r="0.939"/>
<circle fill="#000000" cx="20.491" cy="27.458" r="0.939"/>
<circle fill="#000000" cx="19.15" cy="31.481" r="0.939"/>
<circle fill="#000000" cx="19.15" cy="34.164" r="0.939"/>
<circle fill="#000000" cx="20.491" cy="32.823" r="0.939"/>
<circle fill="#000000" cx="17.808" cy="38.188" r="0.939"/>
<circle fill="#000000" cx="19.15" cy="36.847" r="0.939"/>
</svg>