<svg xmlns="http://www.w3.org/2000/svg" xmlns:xlink="http://www.w3.org/1999/xlink" version="1.1" id="Your_Icon" x="0px" y="0px" width="100px" height="100px" viewBox="0 0 100 100" enable-background="new 0 0 100 100" xml:space="preserve">
<path fill="#000000" d="M87.131,36.396c-3.788,0-6.869,3.081-6.869,6.869c0,0.484,0.051,0.957,0.147,1.413L46.22,63.933  L58.206,43.57c0.496,0.114,1.011,0.176,1.54,0.176c3.787,0,6.869-3.081,6.869-6.869c0-3.788-3.081-6.869-6.869-6.869  c-3.788,0-6.869,3.081-6.869,6.869c0,0.546,0.066,1.077,0.187,1.587L17.775,59.568c-0.258-0.229-0.533-0.439-0.823-0.627  l5.514-20.002c3.671-0.134,6.616-3.16,6.616-6.863c0-1.32-0.375-2.554-1.023-3.602l13.219-15.297  c0.834,0.361,1.753,0.562,2.718,0.562c3.787,0,6.869-3.082,6.869-6.869S47.782,0,43.994,0c-3.788,0-6.869,3.081-6.869,6.869  c0,1.32,0.375,2.554,1.024,3.602L24.93,25.768c-0.834-0.361-1.753-0.562-2.718-0.562c-3.788,0-6.869,3.081-6.869,6.869  c0,2.412,1.25,4.536,3.136,5.762l-5.514,20.002c-3.671,0.134-6.616,3.16-6.616,6.863c0,3.788,3.081,6.869,6.869,6.869  c3.788,0,6.869-3.081,6.869-6.869c0-0.546-0.066-1.077-0.187-1.587l33.954-20.306L42.081,62.811  c-0.496-0.114-1.011-0.176-1.541-0.176c-3.788,0-6.869,3.081-6.869,6.869c0,3.788,3.081,6.869,6.869,6.869  c3.067,0,5.671-2.021,6.55-4.801h21.644c0.22,0.694,0.548,1.34,0.963,1.92l-9.85,13.092c-0.716-0.253-1.484-0.392-2.286-0.392  c-3.788,0-6.869,3.082-6.869,6.869c0,3.788,3.081,6.869,6.869,6.869c3.788,0,6.869-3.081,6.869-6.869  c0-1.486-0.476-2.862-1.281-3.987L73,75.98c0.715,0.253,1.484,0.392,2.285,0.392c3.788,0,6.869-3.081,6.869-6.869  c0-3.788-3.081-6.869-6.869-6.869c-3.067,0-5.671,2.021-6.55,4.801H48.426l34.016-19.157c1.229,1.15,2.877,1.856,4.689,1.856  c3.788,0,6.869-3.081,6.869-6.869C94,39.478,90.919,36.396,87.131,36.396z M59.746,34.143c1.507,0,2.734,1.226,2.734,2.734  c0,1.507-1.226,2.734-2.734,2.734c-1.507,0-2.734-1.226-2.734-2.734C57.012,35.369,58.239,34.143,59.746,34.143z M43.994,4.135  c1.507,0,2.733,1.226,2.733,2.734c0,1.507-1.226,2.734-2.733,2.734c-1.507,0-2.734-1.226-2.734-2.734  C41.26,5.362,42.487,4.135,43.994,4.135z M22.212,29.342c1.507,0,2.734,1.226,2.734,2.734c0,1.507-1.226,2.734-2.734,2.734  c-1.507,0-2.734-1.226-2.734-2.734C19.478,30.568,20.705,29.342,22.212,29.342z M13.218,67.436c-1.507,0-2.734-1.226-2.734-2.734  s1.226-2.734,2.734-2.734c1.507,0,2.734,1.226,2.734,2.734S14.726,67.436,13.218,67.436z M57.562,95.793  c-1.507,0-2.733-1.226-2.733-2.734c0-1.507,1.226-2.734,2.733-2.734c1.507,0,2.734,1.226,2.734,2.734  C60.295,94.567,59.069,95.793,57.562,95.793z M75.285,66.77c1.507,0,2.734,1.226,2.734,2.734s-1.226,2.734-2.734,2.734  c-1.507,0-2.734-1.226-2.734-2.734S73.778,66.77,75.285,66.77z M40.541,72.237c-1.507,0-2.734-1.226-2.734-2.734  s1.226-2.734,2.734-2.734c1.507,0,2.734,1.226,2.734,2.734S42.048,72.237,40.541,72.237z M87.131,45.999  c-1.507,0-2.734-1.226-2.734-2.734c0-1.507,1.226-2.734,2.734-2.734c1.507,0,2.734,1.226,2.734,2.734  C89.865,44.773,88.638,45.999,87.131,45.999z"/>
</svg>