<svg xmlns="http://www.w3.org/2000/svg" xmlns:xlink="http://www.w3.org/1999/xlink" version="1.1" id="Layer_1" x="0px" y="0px" width="100px" height="100px" viewBox="0 0 100 100" enable-background="new 0 0 100 100" xml:space="preserve">
<g id="XMLID_69_">
	<g>
		<path d="M39.638,46.482c-0.137,0.12-0.268,0.235-0.404,0.35C39.359,46.717,39.491,46.592,39.638,46.482z"/>
		<path d="M47.663,58.304c9.849-3.721,15.148,6.199,17.928,17.753c1.321-0.061,2.37-0.558,2.327-1.104    c-0.667-1.683-0.191-4.523-0.093-7.347c0.278-2.021,1.409-3.426,3.233-3.431c4.752-1.229,14.918-10.019,11.854-12.887    c1-0.371,1.508-2.196,1.972-3.277c0.361-0.753,0.732-2.523-0.087-3.13v-0.071c1.803-0.027,3.501-0.973,3.955-2.753    c0.284-1.229-0.547-4.124-1.775-4.769c0-0.005,0.011-0.022,0.017-0.027c1.224-1.033,2.206-4.195-2.109-6.828    c0.377-3.436-4.063-7.817-6.506-10.013c-2.567-2.06-5.222-2.519-7.024-1.612l-0.044,0.049c-1.327-1.174-3.354-1.666-5.828-0.372    c-0.907-1.48-3.791-1.994-5.67-1.579c-1.819-2.076-5.277-2.305-7.03-0.787l-0.082,0.104c-1.044-0.579-2.568-0.683-3.289,0.071    c-3.294-2.136-8.101-0.115-6.861,3.436c-1.382-3.431-4.698-1.906-5.343-0.257c-0.732,1.076-1.344,2.688-1.136,4.179    c-2.108,0.284-3.113,2.622-4.037,4.119c-0.814,1.07-1.595,1.704-2.693,2.791c-2.07,2.284-2.677,6.828-0.934,9.669    c-1.803,1.305-1.781,4.463,0.492,6.375c4.009,2.972,7.926,2.163,10.335,0.224c-2.584,2.491-0.175,6.342,1.721,8.341    c1.699,1.645,1.792,3.087,4.266,3.398C46.237,58.681,46.805,58.342,47.663,58.304z M81.983,86.184    c-6.675-0.272-13.099-0.136-19.107,3.011c-3.277,1.622-6.413,4.364-9.15,6.549c-1.644,1.235-3.015,3.414-4.916,3.961    c-2.223-4.709-0.295-7.588-5.495-7.725c-4.37-0.272-18.141,3.906-20.463-0.606c-1.354-2.595,0.421-5.735-0.672-8.052    c-1.229-2.595-4.648-2.326-2.605-6.014c-3.818-1.366-2.589-3.414-2.043-6.419c0.677-4.79-2.726-2.595-4.78-5.331    c-1.639-2.316,0.951-5.184,2.054-7.096c2.049-3.688,3.13-8.058,2.311-12.291C4.825-20.75,133.758-8.454,81.181,74.303    l-0.421,0.039C81.044,77.881,81.858,82.645,81.983,86.184z"/>
	</g>
</g>
</svg>