<svg xmlns="http://www.w3.org/2000/svg" xmlns:xlink="http://www.w3.org/1999/xlink" version="1.1" id="Layer_1" x="0px" y="0px" width="90px" height="90px" viewBox="0 0 90 90" enable-background="new 0 0 90 90" xml:space="preserve">
<path fill="#000000" d="M77.101,47.19l0.042,9.823H62.54V37.366h-5.058L57.44,66.395H42.894v-38.41h-5.093l0.041,29.028H23.247  V37.393l-5.065,0.057l-0.042,9.74H6.059C7.291,67.78,24.378,84.099,45.278,84.099S83.264,67.78,84.497,47.19H77.101z"/>
<path fill="#000000" d="M13.392,42.421l0.041-9.686l14.581-0.164v19.673h5.052l-0.041-29.028h14.636v38.41h5.017l0.042-29.029  h14.588v19.646h5.045l-0.042-9.823h12.185C83.264,21.831,66.178,5.512,45.278,5.512S7.291,21.831,6.059,42.421H13.392z"/>
</svg>