<svg xmlns="http://www.w3.org/2000/svg" xmlns:xlink="http://www.w3.org/1999/xlink" version="1.1" id="Your_Icon" x="0px" y="0px" width="100px" height="100px" viewBox="0 0 100 100" enable-background="new 0 0 100 100" xml:space="preserve">
<path fill="#000000" d="M91.396,30.914c0.004-0.056,0.005-0.113,0.004-0.168c0-0.017-0.001-0.035-0.001-0.052  c-0.002-0.051-0.005-0.101-0.01-0.151c-0.002-0.014-0.003-0.029-0.005-0.043c-0.007-0.052-0.015-0.104-0.026-0.155  c-0.004-0.021-0.008-0.041-0.013-0.062c-0.012-0.054-0.026-0.107-0.043-0.159c-0.005-0.016-0.011-0.032-0.017-0.049  c-0.015-0.044-0.031-0.087-0.049-0.129c-0.007-0.017-0.014-0.033-0.021-0.05c-0.024-0.054-0.05-0.106-0.079-0.158  c-0.007-0.013-0.015-0.026-0.022-0.039c-0.032-0.055-0.066-0.11-0.103-0.163c0,0,0-0.001-0.001-0.001L80.815,15.056  c0,0-0.001-0.001-0.001-0.001c-0.036-0.052-0.076-0.101-0.117-0.15c-0.011-0.013-0.022-0.026-0.033-0.039  c-0.039-0.044-0.08-0.087-0.123-0.128c-0.013-0.012-0.026-0.023-0.039-0.035c-0.02-0.018-0.04-0.037-0.06-0.054  c-0.013-0.011-0.027-0.021-0.04-0.032c-0.017-0.014-0.035-0.028-0.053-0.041c-0.045-0.033-0.09-0.065-0.137-0.095  c-0.016-0.01-0.032-0.019-0.048-0.028c-0.038-0.023-0.076-0.044-0.115-0.064c-0.017-0.009-0.034-0.018-0.051-0.026  c-0.052-0.025-0.105-0.048-0.158-0.069c-0.013-0.005-0.025-0.009-0.038-0.014c-0.047-0.017-0.094-0.033-0.142-0.046  c-0.014-0.004-0.027-0.008-0.041-0.012c-0.058-0.015-0.116-0.028-0.174-0.039c-0.012-0.002-0.024-0.004-0.036-0.005  c-0.05-0.008-0.1-0.014-0.151-0.019c-0.015-0.001-0.029-0.003-0.043-0.004c-0.058-0.004-0.116-0.006-0.174-0.005  c-0.017,0-0.033,0.001-0.05,0.002c-0.044,0.002-0.089,0.005-0.133,0.009c-0.02,0.002-0.039,0.004-0.059,0.006  c-0.054,0.007-0.108,0.016-0.162,0.027c-0.022,0.005-0.044,0.01-0.067,0.016c-0.037,0.009-0.075,0.019-0.112,0.03  c-0.023,0.007-0.045,0.013-0.067,0.02c-0.004,0.001-0.007,0.002-0.011,0.003l-12.998,4.419L68.342,2.53  c0.13-0.712-0.108-1.442-0.634-1.939c-0.526-0.497-1.268-0.695-1.971-0.525L50.771,3.684c-0.001,0-0.003,0.001-0.004,0.001  c-0.064,0.016-0.126,0.034-0.188,0.056c-0.016,0.005-0.032,0.011-0.047,0.017c-0.046,0.017-0.091,0.035-0.135,0.055  c-0.017,0.008-0.034,0.015-0.051,0.023c-0.053,0.026-0.105,0.053-0.156,0.083c-0.018,0.011-0.036,0.023-0.053,0.034  c-0.034,0.022-0.068,0.044-0.102,0.068c-0.02,0.014-0.04,0.028-0.059,0.043c-0.037,0.028-0.072,0.057-0.106,0.087  c-0.013,0.012-0.027,0.023-0.04,0.035c-0.041,0.037-0.08,0.077-0.118,0.117c-0.014,0.015-0.027,0.03-0.04,0.045  c-0.03,0.034-0.059,0.068-0.086,0.104c-0.011,0.014-0.021,0.027-0.031,0.04c-0.036,0.049-0.071,0.099-0.103,0.151  c-0.005,0.008-0.009,0.016-0.013,0.023c-0.027,0.045-0.052,0.091-0.075,0.138c-0.009,0.017-0.017,0.035-0.025,0.053  c-0.019,0.04-0.036,0.08-0.052,0.122c-0.007,0.018-0.015,0.036-0.021,0.054c-0.019,0.052-0.036,0.106-0.051,0.16l-0.003,0.01  c-0.002,0.006-0.003,0.011-0.005,0.017l-4.774,17.276L25.62,14.643c-0.66-0.275-1.414-0.203-2.009,0.194  c-0.595,0.397-0.953,1.064-0.953,1.779v17.792l-13.579,9.74c-0.014,0.01-0.027,0.021-0.041,0.032  c-0.036,0.027-0.07,0.055-0.104,0.084c-0.016,0.014-0.032,0.027-0.047,0.042c-0.041,0.037-0.081,0.076-0.119,0.116  c-0.004,0.004-0.008,0.008-0.011,0.012c-0.04,0.044-0.078,0.089-0.115,0.136c-0.009,0.012-0.019,0.024-0.028,0.036  c-0.034,0.046-0.068,0.093-0.098,0.142c-0.002,0.003-0.004,0.006-0.006,0.009c-0.032,0.052-0.061,0.105-0.089,0.159  c-0.007,0.014-0.014,0.028-0.021,0.042c-0.022,0.047-0.044,0.094-0.063,0.142c-0.004,0.01-0.008,0.019-0.012,0.029  c-0.02,0.054-0.038,0.109-0.054,0.164c-0.006,0.019-0.011,0.039-0.016,0.059c-0.011,0.043-0.021,0.086-0.029,0.129  c-0.003,0.017-0.007,0.035-0.01,0.052c-0.009,0.055-0.016,0.11-0.021,0.166c-0.002,0.023-0.003,0.045-0.004,0.068  c-0.002,0.044-0.003,0.088-0.003,0.132c0,0.018-0.001,0.035,0,0.053C8.189,46,8.192,46.049,8.197,46.097  c0.001,0.01,0.003,0.02,0.004,0.031c0.002,0.018,0.005,0.037,0.007,0.055c0.008,0.057,0.018,0.113,0.03,0.168  c0.001,0.006,0.002,0.011,0.003,0.016l4.221,18.258v0c0.012,0.054,0.028,0.107,0.044,0.16c0.004,0.014,0.009,0.028,0.013,0.042  c0.017,0.049,0.034,0.097,0.054,0.145c0.005,0.013,0.012,0.026,0.017,0.039c0.015,0.035,0.032,0.069,0.049,0.103  c0.01,0.019,0.019,0.038,0.029,0.056c0.021,0.038,0.042,0.075,0.066,0.112c0.012,0.019,0.025,0.038,0.037,0.057  c0.018,0.027,0.037,0.053,0.056,0.079c0.013,0.017,0.026,0.035,0.039,0.052c0.027,0.034,0.055,0.068,0.085,0.101  c0.011,0.013,0.023,0.025,0.035,0.037c0.026,0.028,0.054,0.056,0.082,0.082c0.013,0.012,0.026,0.024,0.039,0.036  c0.033,0.03,0.066,0.058,0.1,0.086c0.006,0.005,0.012,0.01,0.018,0.015c0,0,0.001,0.001,0.001,0.001l12.203,9.544l-2.729,13.219  c-0.005,0.026-0.009,0.052-0.013,0.078c-0.003,0.02-0.008,0.04-0.01,0.06c-0.008,0.056-0.013,0.113-0.016,0.169  c-0.001,0.022-0.002,0.043-0.002,0.065c-0.001,0.042-0.001,0.085,0,0.127c0.001,0.02,0.001,0.039,0.002,0.058  c0.004,0.059,0.009,0.117,0.017,0.175c0.002,0.013,0.005,0.027,0.007,0.04c0.008,0.049,0.017,0.097,0.029,0.145  c0.004,0.016,0.007,0.031,0.011,0.047c0.015,0.059,0.032,0.118,0.052,0.175c0.001,0.003,0.003,0.007,0.004,0.01  c0.019,0.054,0.041,0.107,0.065,0.16c0.007,0.015,0.014,0.03,0.021,0.045c0.023,0.047,0.047,0.093,0.073,0.139  c0.005,0.008,0.009,0.017,0.014,0.026c0.03,0.05,0.062,0.098,0.095,0.146c0.012,0.017,0.025,0.034,0.038,0.051  c0.025,0.033,0.05,0.065,0.077,0.096c0.014,0.017,0.028,0.034,0.042,0.05c0.037,0.041,0.076,0.081,0.116,0.119  c0.018,0.017,0.036,0.033,0.055,0.049c0.015,0.014,0.03,0.028,0.046,0.041c0.011,0.009,0.023,0.017,0.034,0.026  c0.028,0.022,0.056,0.044,0.085,0.065c0.028,0.021,0.057,0.04,0.087,0.059c0.026,0.017,0.051,0.034,0.078,0.049  c0.038,0.022,0.076,0.043,0.115,0.063c0.017,0.009,0.032,0.019,0.05,0.027l18.419,8.835c0.292,0.14,0.608,0.21,0.925,0.21  c0.307,0,0.613-0.066,0.898-0.198c0.579-0.268,1.008-0.781,1.17-1.398l4.549-17.356l13.489-9.873l16.737-0.04  c0.765-0.002,1.47-0.412,1.85-1.076c0.38-0.664,0.376-1.48-0.009-2.14l-7.487-12.823l14.112-3.974  c0.265-0.068,0.512-0.186,0.728-0.344c0,0,0.001,0,0.001-0.001c0,0,0-0.001,0.001-0.001c0.087-0.063,0.168-0.133,0.244-0.209l0,0  c0-0.001,0.001-0.001,0.001-0.001c0.333-0.331,0.559-0.772,0.616-1.27c0.004-0.037,0.008-0.074,0.01-0.111l1.268-18.254  c0,0,0-0.001,0-0.001L91.396,30.914z M15.872,60.393L13.38,49.614l10.313,4.662L15.872,60.393z M52.13,10.691l6.874,9.763  L48.842,22.59L52.13,10.691z M59.422,35.937l-9.268-9.253l10.122-2.127L59.422,35.937z M56.888,39.449l-8.903,1.842V30.56  L56.888,39.449z M31.433,54.231l10.98-6.001l-3.601,12.803L31.433,54.231z M29.931,58.662l6.7,6.176l-6.7,5.268V58.662z   M46.732,48.666l4.76,6.36l-7.986,5.111L46.732,48.666z M49.574,45.328l7.979-1.651l-3.441,7.714L49.574,45.328z M61.692,44.896  l5.48,7.172l-9.122,0.991L61.692,44.896z M43.709,40.76l-13.598-5.433l13.598-6.525V40.76z M40.838,44.217l-11.423,6.243  l-1.896-11.565L40.838,44.217z M29.432,77.142l11.696,3.052l-13.434,5.368L29.432,77.142z M32.5,73.524l6.755-5.311l4.471,8.241  L32.5,73.524z M53.877,58.576l4.5,7.526l-12.702-2.277L53.877,58.576z M58.127,57.352l9.151-0.995l-4.717,8.412L58.127,57.352z   M70.239,49.04l-5.547-7.26l8.293-2.912L70.239,49.04z M63.582,37.638l0.82-10.921l7.809,7.89L63.582,37.638z M80.373,21.854  l5.528,7.85l-7.133,2.57L80.373,21.854z M74.64,30.984l-8.096-8.181l9.873-3.357L74.64,30.984z M61.437,16.483l-6.605-9.382  l8.712-2.106L61.437,16.483z M40.622,25.54l-13.688,6.568V19.825L40.622,25.54z M23.244,39.25l1.794,10.942L14.58,45.464  L23.244,39.25z M18.016,64.144l7.639-5.975v11.95L18.016,64.144z M41.804,94.81l-11.693-5.608l14.703-5.876L41.804,94.81z   M48.669,76.597l-4.743-8.741l13.404,2.403L48.669,76.597z M76.335,66.864l-10.059,0.024l4.935-8.801L76.335,66.864z M74.219,50.705  l2.913-10.791l7.018,7.995L74.219,50.705z M86.216,43.781l-6.432-7.328l7.12-2.565L86.216,43.781z"/>
</svg>